<svg width="150" height="150" viewBox="0 0 150 150" fill="none" xmlns="http://www.w3.org/2000/svg">
<path d="M146.678 3.43621C145.625 2.38148 144.375 1.5447 142.998 0.973768C141.622 0.402834 140.147 0.108954 138.657 0.108954C137.166 0.108954 135.691 0.402834 134.315 0.973768C132.938 1.5447 131.688 2.38148 130.635 3.43621L75 58.9579L19.3646 3.32243C18.3112 2.26909 17.0607 1.43353 15.6845 0.863469C14.3082 0.293405 12.8331 1.10987e-08 11.3435 0C9.85385 -1.10988e-08 8.37878 0.293405 7.00252 0.863469C5.62627 1.43353 4.37577 2.26909 3.32243 3.32243C2.26909 4.37577 1.43353 5.62627 0.863469 7.00252C0.293405 8.37878 -1.10987e-08 9.85385 0 11.3435C1.10988e-08 12.8331 0.293405 14.3082 0.863469 15.6845C1.43353 17.0607 2.26909 18.3112 3.32243 19.3646L58.9579 75L3.32243 130.635C2.26909 131.689 1.43353 132.939 0.863469 134.316C0.293405 135.692 0 137.167 0 138.657C0 140.146 0.293405 141.621 0.863469 142.997C1.43353 144.374 2.26909 145.624 3.32243 146.678C4.37577 147.731 5.62627 148.566 7.00252 149.137C8.37878 149.707 9.85385 150 11.3435 150C12.8331 150 14.3082 149.707 15.6845 149.137C17.0607 148.566 18.3112 147.731 19.3646 146.678L75 91.0421L130.635 146.678C131.689 147.731 132.939 148.566 134.316 149.137C135.692 149.707 137.167 150 138.657 150C140.146 150 141.621 149.707 142.997 149.137C144.374 148.566 145.624 147.731 146.678 146.678C147.731 145.624 148.566 144.374 149.137 142.997C149.707 141.621 150 140.146 150 138.657C150 137.167 149.707 135.692 149.137 134.316C148.566 132.939 147.731 131.689 146.678 130.635L91.0421 75L146.678 19.3646C151.001 15.0411 151.001 7.75962 146.678 3.43621V3.43621Z" fill="white"/>
</svg>
