<svg width="55" height="55" viewBox="0 0 55 55" fill="none" xmlns="http://www.w3.org/2000/svg">
<path d="M13.4444 39.7222L22.7639 30.4028L28.875 36.5139L39.7222 25.7431V30.5556H45.8333V15.2778H30.5556V21.3889H35.3681L28.875 27.8819L22.7639 21.7708L9.16667 35.4444L13.4444 39.7222ZM6.11111 55C4.43056 55 2.99139 54.4021 1.79361 53.2064C0.59787 52.0086 0 50.5694 0 48.8889V6.11111C0 4.43056 0.59787 2.99139 1.79361 1.79361C2.99139 0.59787 4.43056 0 6.11111 0H48.8889C50.5694 0 52.0086 0.59787 53.2064 1.79361C54.4021 2.99139 55 4.43056 55 6.11111V48.8889C55 50.5694 54.4021 52.0086 53.2064 53.2064C52.0086 54.4021 50.5694 55 48.8889 55H6.11111Z" fill="white"/>
</svg>
