<svg width="55" height="56" viewBox="0 0 55 56" fill="none" xmlns="http://www.w3.org/2000/svg">
<path d="M13.75 11.7857C14.8349 11.7857 15.7143 10.9063 15.7143 9.82142C15.7143 8.73658 14.8349 7.85714 13.75 7.85714C12.6652 7.85714 11.7857 8.73658 11.7857 9.82142C11.7857 10.9063 12.6652 11.7857 13.75 11.7857Z" fill="white"/>
<path d="M49.1071 39.5607V31.4285C49.1071 30.3866 48.6932 29.3874 47.9565 28.6506C47.2197 27.9139 46.2205 27.5 45.1786 27.5H29.4643V19.6428H47.1428C48.1848 19.6428 49.184 19.2289 49.9208 18.4922C50.6575 17.7554 51.0714 16.7562 51.0714 15.7143V3.92857C51.0714 2.88665 50.6575 1.8874 49.9208 1.15065C49.184 0.413901 48.1848 0 47.1428 0H7.85716C6.81523 0 5.81599 0.413901 5.07924 1.15065C4.34249 1.8874 3.92859 2.88665 3.92859 3.92857V15.7143C3.92859 16.7562 4.34249 17.7554 5.07924 18.4922C5.81599 19.2289 6.81523 19.6428 7.85716 19.6428H25.5357V27.5H9.82144C8.77952 27.5 7.78027 27.9139 7.04352 28.6506C6.30677 29.3874 5.89287 30.3866 5.89287 31.4285V39.5607C4.04122 40.0388 2.4275 41.1758 1.35419 42.7586C0.280884 44.3413 -0.178325 46.2612 0.0626429 48.1584C0.30361 50.0555 1.22821 51.7996 2.66313 53.0638C4.09805 54.328 5.94478 55.0255 7.85716 55.0255C9.76953 55.0255 11.6163 54.328 13.0512 53.0638C14.4861 51.7996 15.4107 50.0555 15.6517 48.1584C15.8926 46.2612 15.4334 44.3413 14.3601 42.7586C13.2868 41.1758 11.6731 40.0388 9.82144 39.5607V31.4285H25.5357V39.2857H19.6429V55H35.3571V39.2857H29.4643V31.4285H45.1786V39.5607C43.3269 40.0388 41.7132 41.1758 40.6399 42.7586C39.5666 44.3413 39.1074 46.2612 39.3483 48.1584C39.5893 50.0555 40.5139 51.7996 41.9488 53.0638C43.3837 54.328 45.2305 55.0255 47.1428 55.0255C49.0552 55.0255 50.9019 54.328 52.3369 53.0638C53.7718 51.7996 54.6964 50.0555 54.9374 48.1584C55.1783 46.2612 54.7191 44.3413 53.6458 42.7586C52.5725 41.1758 50.9588 40.0388 49.1071 39.5607V39.5607ZM11.7857 47.1428C11.7857 47.9198 11.5553 48.6794 11.1236 49.3254C10.692 49.9715 10.0784 50.475 9.36055 50.7723C8.6427 51.0697 7.8528 51.1475 7.09073 50.9959C6.32866 50.8443 5.62866 50.4702 5.07924 49.9207C4.52982 49.3713 4.15566 48.6713 4.00407 47.9092C3.85249 47.1472 3.93029 46.3573 4.22763 45.6394C4.52498 44.9216 5.02851 44.308 5.67456 43.8763C6.32061 43.4447 7.08016 43.2143 7.85716 43.2143C8.89908 43.2143 9.89832 43.6282 10.6351 44.3649C11.3718 45.1017 11.7857 46.1009 11.7857 47.1428ZM31.4286 43.2143V51.0714H23.5714V43.2143H31.4286ZM7.85716 15.7143V3.92857H47.1428V15.7143H7.85716ZM47.1428 51.0714C46.3658 51.0714 45.6063 50.841 44.9602 50.4093C44.3142 49.9776 43.8107 49.3641 43.5133 48.6462C43.216 47.9284 43.1382 47.1385 43.2898 46.3764C43.4413 45.6143 43.8155 44.9143 44.3649 44.3649C44.9143 43.8155 45.6143 43.4413 46.3764 43.2897C47.1385 43.1382 47.9284 43.216 48.6462 43.5133C49.3641 43.8106 49.9777 44.3142 50.4093 44.9602C50.841 45.6063 51.0714 46.3658 51.0714 47.1428C51.0714 48.1847 50.6575 49.184 49.9208 49.9207C49.184 50.6575 48.1848 51.0714 47.1428 51.0714Z" fill="white"/>
</svg>
