<svg width="55" height="58" viewBox="0 0 55 58" fill="none" xmlns="http://www.w3.org/2000/svg">
<path d="M48.8889 22.5556V51.5556H6.11111V6.44444H33.6111V0H6.11111C2.81111 0 0 2.9 0 6.44444V51.5556C0 55.1 2.81111 58 6.11111 58H48.8889C52.3111 58 55 55.1 55 51.5556V22.5556H48.8889ZM42.7778 22.5556L45.65 15.9178L51.9444 12.8889L45.65 9.86L42.7778 3.22222L39.9056 9.86L33.6111 12.8889L39.9056 15.9178L42.7778 22.5556ZM31.3194 24.9722L27.5 16.1111L23.6806 24.9722L15.2778 29L23.6806 33.0278L27.5 41.8889L31.3194 33.0278L39.7222 29L31.3194 24.9722Z" fill="white"/>
</svg>
