<svg width="55" height="55" viewBox="0 0 55 55" fill="none" xmlns="http://www.w3.org/2000/svg">
<path d="M50.249 45.4983C49.4857 45.4983 48.7756 45.6962 48.1353 46.0166L30.54 28.4457L39.6494 26.6076C40.471 28.0294 41.9917 28.9995 43.7479 28.9995C46.3669 28.9995 48.4983 26.8682 48.4983 24.2492C48.4983 21.6302 46.3669 19.4989 43.7479 19.4989C41.3298 19.4989 39.3476 21.3239 39.0564 23.6651L30.0026 25.4927L36.8652 9.46198C36.9943 9.47203 37.1188 9.50065 37.2504 9.50065C39.8694 9.50065 42.0007 7.36931 42.0007 4.75033C42.0007 2.13134 39.8694 0 37.2504 0C34.6314 0 32.5001 2.13134 32.5001 4.75033C32.5001 6.15952 33.1284 7.41303 34.1071 8.28379L27.2772 24.2374L21.3411 14.3268C22.0542 13.4957 22.5017 12.4295 22.5017 11.2508C22.5017 8.63182 20.3703 6.50047 17.7514 6.50047C15.1324 6.50047 13.001 8.63182 13.001 11.2508C13.001 13.8698 15.1324 16.0011 17.7514 16.0011C18.1044 16.0011 18.4454 15.9564 18.7759 15.8831L23.8281 24.3181L9.46098 18.1425C9.47203 18.0114 9.50065 17.8854 9.50065 17.7513C9.50065 15.1323 7.36931 13.001 4.75033 13.001C2.13134 13.001 0 15.1323 0 17.7513C0 20.3703 2.13134 22.5016 4.75033 22.5016C6.15656 22.5016 7.40904 21.8754 8.27878 20.9006L24.2118 27.7482L14.3284 33.6616C13.4972 32.9485 12.4305 32.5 11.2518 32.5C8.63284 32.5 6.5015 34.6314 6.5015 37.2504C6.5015 39.8693 8.63284 42.0007 11.2518 42.0007C13.8708 42.0007 16.0022 39.8693 16.0022 37.2504C16.0022 36.8988 15.9575 36.5573 15.8851 36.2279L25.5702 30.4319L23.4022 45.5845C21.1874 45.9858 19.5 47.9193 19.5 50.2485C19.5 52.8675 21.6313 54.9988 24.2503 54.9988C26.8693 54.9988 29.0006 52.8675 29.0006 50.2485C29.0006 48.3943 27.9224 46.8018 26.3701 46.0199L28.5612 30.7065L46.0151 48.1399C45.6957 48.7772 45.4994 49.4872 45.4994 50.2477C45.4994 52.8667 47.6307 54.998 50.2497 54.998C52.8687 54.998 55 52.8667 55 50.2477C54.999 47.6282 52.8676 45.4974 50.2487 45.4974L50.249 45.4983ZM37.2512 3.00005C38.2164 3.00005 39.0013 3.785 39.0013 4.7502C39.0013 5.71544 38.2164 6.50035 37.2512 6.50035C36.2859 6.50035 35.501 5.7154 35.501 4.7502C35.5005 3.78496 36.2855 3.00005 37.2512 3.00005ZM4.75138 19.5026C3.78614 19.5026 3.00123 18.7176 3.00123 17.7524C3.00123 16.7872 3.78618 16.0023 4.75138 16.0023C5.71658 16.0023 6.50153 16.7872 6.50153 17.7524C6.50153 18.7172 5.71658 19.5026 4.75138 19.5026ZM43.7488 22.4993C44.7141 22.4993 45.499 23.2842 45.499 24.2494C45.499 25.2147 44.714 25.9996 43.7488 25.9996C42.7836 25.9996 41.9987 25.2146 41.9987 24.2494C41.9987 23.2847 42.7836 22.4993 43.7488 22.4993V22.4993ZM16.0021 11.2514C16.0021 10.2862 16.787 9.5013 17.7522 9.5013C18.7179 9.5013 19.5029 10.2862 19.5029 11.2514C19.5029 12.2167 18.7179 13.0016 17.7527 13.0016C16.7875 13.0016 16.0021 12.2166 16.0021 11.2514ZM11.2522 39.0008C10.287 39.0008 9.50209 38.2158 9.50209 37.2506C9.50209 36.2854 10.287 35.5005 11.2522 35.5005C12.2174 35.5005 13.0024 36.2854 13.0024 37.2506C13.0024 38.2159 12.2174 39.0008 11.2522 39.0008ZM24.2501 51.9999C23.2849 51.9999 22.5 51.215 22.5 50.2498C22.5 49.2846 23.2849 48.4996 24.2501 48.4996C25.2153 48.4996 26.0003 49.2846 26.0003 50.2498C26.0008 51.2145 25.2153 51.9999 24.2501 51.9999ZM50.2497 51.9999C49.2844 51.9999 48.4995 51.215 48.4995 50.2498C48.4995 49.2846 49.2845 48.4996 50.2497 48.4996C51.2149 48.4996 51.9998 49.2846 51.9998 50.2498C51.9998 51.2145 51.2149 51.9999 50.2497 51.9999Z" fill="white"/>
</svg>
