<svg width="55" height="55" viewBox="0 0 55 55" fill="none" xmlns="http://www.w3.org/2000/svg">
<path d="M47.9605 32.153C50.1196 31.708 51.7483 29.7905 51.7483 27.5008C51.7483 25.2112 50.1196 23.2947 47.9605 22.8487C45.8099 13.3125 37.3992 6.50249 27.5001 6.50249C15.9213 6.50249 6.50096 15.9217 6.50096 27.5003C6.50096 39.0781 15.9212 48.4982 27.5001 48.4982C37.3999 48.4982 45.8108 41.6885 47.9605 32.1519V32.153ZM48.7485 27.5008C48.7485 28.4661 47.9635 29.251 46.9997 29.251C46.0344 29.251 45.2479 28.4661 45.2479 27.5008C45.2474 26.5356 46.0344 25.7506 46.9997 25.7506C47.9635 25.7506 48.7485 26.5356 48.7485 27.5008ZM27.4999 45.4992C17.5751 45.4992 9.50032 37.4249 9.50032 27.5008C9.50032 17.5767 17.5746 9.50251 27.4999 9.50251C35.8865 9.50251 43.031 15.1996 44.9763 23.2195C43.8177 23.7704 42.9268 24.7724 42.5153 26.0003H31.9833C31.352 24.119 29.5912 22.75 27.5005 22.75C24.8814 22.75 22.75 24.8814 22.75 27.5005C22.75 30.1195 24.8814 32.2509 27.5005 32.2509C29.5917 32.2509 31.352 30.8828 31.9833 29.0006H42.5153C42.9272 30.2295 43.8176 31.23 44.9763 31.7809C43.0296 39.8019 35.8871 45.4992 27.4999 45.4992ZM29.2491 27.5008C29.2491 28.4661 28.4641 29.251 27.4994 29.251C26.5342 29.251 25.7492 28.4661 25.7492 27.5008C25.7492 26.5356 26.5342 25.7506 27.4994 25.7506C28.4642 25.7506 29.2491 26.5356 29.2491 27.5008ZM8.00057 45.4992C5.3815 45.4992 3.25009 47.6306 3.25009 50.2496C3.25059 52.8687 5.3815 55.0001 8.00057 55.0001C10.6196 55.0001 12.7511 52.8687 12.7511 50.2496C12.7511 47.6306 10.6196 45.4992 8.00057 45.4992V45.4992ZM8.00057 51.9999C7.0353 51.9999 6.25037 51.2149 6.25037 50.2496C6.25037 49.2844 7.03534 48.4989 8.00057 48.4989C8.96584 48.4989 9.75078 49.2839 9.75078 50.2491C9.75128 51.2149 8.9658 51.9999 8.00057 51.9999ZM47.0006 42.2502C44.3815 42.2502 42.2501 44.3816 42.2501 47.0007C42.2501 49.6198 44.3815 51.7507 47.0006 51.7507C49.6197 51.7507 51.7506 49.6198 51.7506 47.0007C51.7506 44.3816 49.6197 42.2502 47.0006 42.2502V42.2502ZM47.0006 48.7509C46.0353 48.7509 45.2504 47.9659 45.2504 47.0007C45.2499 46.0355 46.0354 45.25 47.0006 45.25C47.9659 45.25 48.7508 46.0355 48.7508 47.0007C48.7508 47.966 47.9658 48.7509 47.0006 48.7509V48.7509ZM9.50097 11.2513C9.50097 8.63223 7.36956 6.50133 4.75048 6.50133C2.13141 6.50133 0 8.63274 0 11.2518C0 13.8709 2.13141 16.0023 4.75048 16.0023C7.36956 16.0018 9.50097 13.8704 9.50097 11.2513V11.2513ZM3.00028 11.2513C3.00028 10.286 3.78525 9.5011 4.75048 9.5011C5.71575 9.5011 6.5012 10.2861 6.5012 11.2513C6.5012 12.2166 5.71623 13.0015 4.751 13.0015C3.78523 13.002 3.00028 12.217 3.00028 11.2513ZM50.248 0C47.6289 0 45.4989 2.13141 45.4989 4.75048C45.4989 7.36956 47.6288 9.50097 50.248 9.50097C52.8686 9.50097 55 7.36956 55 4.75048C55 2.13141 52.8686 0 50.248 0ZM50.248 6.5012C49.2842 6.5012 48.4992 5.71623 48.4992 4.751C48.4992 3.78573 49.2842 3.00079 50.248 3.00079C51.2132 3.00079 51.9997 3.78577 51.9997 4.751C51.9997 5.71576 51.2132 6.5012 50.248 6.5012ZM24.2501 32.5016C21.631 32.5016 19.4996 34.6331 19.4996 37.2521C19.4996 39.8712 21.631 42.0026 24.2501 42.0026C26.8692 42.0026 29.0006 39.8712 29.0006 37.2521C29.0006 34.6325 26.8692 32.5016 24.2501 32.5016ZM24.2501 39.0023C23.2848 39.0023 22.4999 38.2174 22.4999 37.2521C22.4999 36.2869 23.2849 35.5019 24.2501 35.5019C25.2154 35.5019 26.0003 36.2869 26.0003 37.2521C26.0008 38.2169 25.2158 39.0023 24.2501 39.0023Z" fill="white"/>
</svg>
