<svg width="55" height="55" viewBox="0 0 55 55" fill="none" xmlns="http://www.w3.org/2000/svg">
<path d="M35.3572 7.85714C37.5269 7.85714 39.2857 6.09826 39.2857 3.92857C39.2857 1.75888 37.5269 0 35.3572 0C33.1875 0 31.4286 1.75888 31.4286 3.92857C31.4286 6.09826 33.1875 7.85714 35.3572 7.85714Z" fill="white"/>
<path d="M11.7857 31.4286C13.9554 31.4286 15.7143 29.6697 15.7143 27.5C15.7143 25.3303 13.9554 23.5714 11.7857 23.5714C9.616 23.5714 7.85712 25.3303 7.85712 27.5C7.85712 29.6697 9.616 31.4286 11.7857 31.4286Z" fill="white"/>
<path d="M51.0715 23.5714C53.2411 23.5714 55 21.8126 55 19.6429C55 17.4732 53.2411 15.7143 51.0715 15.7143C48.9018 15.7143 47.1429 17.4732 47.1429 19.6429C47.1429 21.8126 48.9018 23.5714 51.0715 23.5714Z" fill="white"/>
<path d="M17.6786 13.75C19.8483 13.75 21.6071 11.9911 21.6071 9.82145C21.6071 7.65176 19.8483 5.89288 17.6786 5.89288C15.5089 5.89288 13.75 7.65176 13.75 9.82145C13.75 11.9911 15.5089 13.75 17.6786 13.75Z" fill="white"/>
<path d="M27.5 47.1428C29.6697 47.1428 31.4286 45.384 31.4286 43.2143C31.4286 41.0446 29.6697 39.2857 27.5 39.2857C25.3303 39.2857 23.5714 41.0446 23.5714 43.2143C23.5714 45.384 25.3303 47.1428 27.5 47.1428Z" fill="white"/>
<path d="M55 2.77554L52.2225 0L3.92857 48.292V0H0V51.0714C0 52.1134 0.413902 53.1126 1.15065 53.8493C1.8874 54.5861 2.88665 55 3.92857 55H55V51.0714H6.70411L55 2.77554Z" fill="white"/>
</svg>
