<svg width="55" height="55" viewBox="0 0 55 55" fill="none" xmlns="http://www.w3.org/2000/svg">
<path d="M25.2083 18.3333H29.7917V20.625H25.2083V18.3333ZM25.2083 9.16666H29.7917V11.4583H25.2083V9.16666ZM25.2083 22.9167H29.7917V25.2083H25.2083V22.9167Z" fill="white"/>
<path d="M48.125 27.5V20.625C41.1387 20.6236 34.3698 23.0543 28.9804 27.5H26.0196C20.6303 23.0543 13.8613 20.6236 6.87501 20.625V27.5C6.26722 27.5 5.68433 27.7414 5.25456 28.1712C4.82479 28.601 4.58334 29.1839 4.58334 29.7917V34.375C4.58334 34.9828 4.82479 35.5657 5.25456 35.9955C5.68433 36.4252 6.26722 36.6667 6.87501 36.6667V45.8333C14.5339 45.8263 21.9083 48.7351 27.5 53.9687C33.0976 48.7444 40.4682 45.8371 48.125 45.8333V36.6667C48.7328 36.6667 49.3157 36.4252 49.7455 35.9955C50.1752 35.5657 50.4167 34.9828 50.4167 34.375V29.7917C50.4167 29.1839 50.1752 28.601 49.7455 28.1712C49.3157 27.7414 48.7328 27.5 48.125 27.5Z" fill="white"/>
<path d="M20.625 11.4583C21.8907 11.4583 22.9167 10.4323 22.9167 9.16667C22.9167 7.90101 21.8907 6.875 20.625 6.875C19.3594 6.875 18.3333 7.90101 18.3333 9.16667C18.3333 10.4323 19.3594 11.4583 20.625 11.4583Z" fill="white"/>
<path d="M34.375 11.4583C35.6407 11.4583 36.6667 10.4323 36.6667 9.16667C36.6667 7.90101 35.6407 6.875 34.375 6.875C33.1094 6.875 32.0833 7.90101 32.0833 9.16667C32.0833 10.4323 33.1094 11.4583 34.375 11.4583Z" fill="white"/>
<path d="M36.6667 18.3333H18.3333C16.5105 18.3315 14.7629 17.6066 13.474 16.3177C12.1851 15.0288 11.4602 13.2811 11.4583 11.4583V6.875C11.4602 5.0522 12.1851 3.30457 13.474 2.01565C14.7629 0.726733 16.5105 0.00182008 18.3333 0L36.6667 0C38.4895 0.00182008 40.2371 0.726733 41.526 2.01565C42.8149 3.30457 43.5399 5.0522 43.5417 6.875V11.4583C43.5399 13.2811 42.8149 15.0288 41.526 16.3177C40.2371 17.6066 38.4895 18.3315 36.6667 18.3333ZM18.3333 4.58333C17.7257 4.58394 17.1432 4.82558 16.7136 5.25522C16.2839 5.68486 16.0423 6.2674 16.0417 6.875V11.4583C16.0423 12.0659 16.2839 12.6485 16.7136 13.0781C17.1432 13.5078 17.7257 13.7494 18.3333 13.75H36.6667C37.2743 13.7494 37.8568 13.5078 38.2865 13.0781C38.7161 12.6485 38.9577 12.0659 38.9583 11.4583V6.875C38.9577 6.2674 38.7161 5.68486 38.2865 5.25522C37.8568 4.82558 37.2743 4.58394 36.6667 4.58333H18.3333Z" fill="white"/>
</svg>
