<svg width="55" height="55" viewBox="0 0 55 55" fill="none" xmlns="http://www.w3.org/2000/svg">
<path d="M49.1071 21.6067C46.5496 21.6067 44.3898 23.2536 43.5765 25.5353H41.25V19.6424C41.25 18.5577 40.3713 17.6781 39.2857 17.6781H23.5714C22.4858 17.6781 21.6071 18.5577 21.6071 19.6424V23.3969L11.7857 5.39168V1.96429C11.7857 0.87954 10.907 0 9.82143 0H1.96429C0.878664 0 0 0.87954 0 1.96429V9.82143C0 10.9062 0.878664 11.7857 1.96429 11.7857H9.82143C10.1332 11.7857 10.4177 11.6976 10.6799 11.5687L18.299 25.5353H11.7858V23.571C11.7858 22.4863 10.9071 21.6067 9.82147 21.6067H1.96433C0.878709 21.6067 4.45308e-05 22.4863 4.45308e-05 23.571V31.4282C4.45308e-05 32.5129 0.878709 33.3925 1.96433 33.3925H9.82147C10.9071 33.3925 11.7858 32.5129 11.7858 31.4282V29.4639H18.299L10.6799 43.4305C10.4177 43.3016 10.1332 43.2135 9.82143 43.2135H1.96429C0.878664 43.2135 0 44.093 0 45.1778V53.0349C0 54.1197 0.878664 54.9992 1.96429 54.9992H9.82143C10.907 54.9992 11.7857 54.1197 11.7857 53.0349V49.6075L21.6071 31.6023V35.3568C21.6071 36.4415 22.4858 37.3211 23.5714 37.3211H39.2857C40.3713 37.3211 41.25 36.4415 41.25 35.3568V29.4639H43.5765C44.3898 31.7456 46.5496 33.3925 49.1071 33.3925C52.3565 33.3925 55 30.749 55 27.4996C55 24.2503 52.3565 21.6068 49.1071 21.6068V21.6067Z" fill="white"/>
</svg>
