<svg width="55" height="55" viewBox="0 0 55 55" fill="none" xmlns="http://www.w3.org/2000/svg">
<path d="M47.135 13.75C49.2209 13.75 51.2214 14.5786 52.6964 16.0536C54.1714 17.5286 55 19.5291 55 21.615V32.01C55 33.0428 54.7966 34.0656 54.4013 35.0198C54.0061 35.974 53.4267 36.8411 52.6964 37.5714C51.9661 38.3017 51.099 38.8811 50.1448 39.2763C49.1906 39.6716 48.1678 39.875 47.135 39.875H27.5C27.5 40.9475 28.38 42.515 29.4525 42.515H41.25V47.135C41.25 49.2209 40.4214 51.2214 38.9464 52.6964C37.4714 54.1714 35.4709 55 33.385 55H21.615C19.5291 55 17.5286 54.1714 16.0536 52.6964C14.5786 51.2214 13.75 49.2209 13.75 47.135V36.8225C13.75 35.7909 13.9536 34.7695 14.3492 33.8169C14.7448 32.8642 15.3246 31.9989 16.0553 31.2708C16.786 30.5427 17.6532 29.9659 18.6073 29.5737C19.5613 29.1814 20.5835 28.9814 21.615 28.985H36.0525C37.0841 28.985 38.1055 28.7814 39.0581 28.3858C40.0108 27.9902 40.8761 27.4104 41.6042 26.6797C42.3323 25.949 42.9091 25.0818 43.3013 24.1277C43.6936 23.1737 43.8936 22.1515 43.89 21.12V13.75H47.135ZM35.365 46.1725C34.265 46.1725 33.385 46.9975 33.385 48.62C33.385 50.2425 34.265 50.5725 35.365 50.5725C35.6214 50.5725 35.8753 50.522 36.1122 50.4239C36.3491 50.3258 36.5643 50.1819 36.7456 50.0006C36.9269 49.8193 37.0708 49.6041 37.1689 49.3672C37.267 49.1303 37.3175 48.8764 37.3175 48.62C37.3175 46.9975 36.4375 46.1725 35.365 46.1725ZM7.865 41.25C5.77907 41.25 3.77858 40.4214 2.30361 38.9464C0.828632 37.4714 0 35.4709 0 33.385V22.99C0 21.9572 0.203434 20.9344 0.598687 19.9802C0.993941 19.026 1.57327 18.1589 2.30361 17.4286C3.77858 15.9536 5.77907 15.125 7.865 15.125H27.5C27.5 14.0525 26.62 12.485 25.5475 12.485H13.75V7.865C13.75 5.77907 14.5786 3.77858 16.0536 2.30361C17.5286 0.828632 19.5291 0 21.615 0H33.385C34.4178 0 35.4406 0.203434 36.3948 0.598687C37.349 0.993941 38.2161 1.57327 38.9464 2.30361C39.6767 3.03394 40.2561 3.90097 40.6513 4.85519C41.0466 5.80942 41.25 6.83215 41.25 7.865V18.1775C41.25 19.2091 41.0464 20.2305 40.6508 21.1831C40.2552 22.1358 39.6754 23.0011 38.9447 23.7292C38.214 24.4573 37.3468 25.0341 36.3927 25.4263C35.4387 25.8186 34.4165 26.0186 33.385 26.015H18.9475C17.9159 26.015 16.8945 26.2186 15.9419 26.6142C14.9892 27.0098 14.1239 27.5896 13.3958 28.3203C12.6677 29.051 12.0909 29.9182 11.6987 30.8723C11.3064 31.8263 11.1064 32.8485 11.11 33.88V41.25H7.865M19.635 8.8275C20.735 8.8275 21.615 8.0025 21.615 6.38C21.615 4.7575 20.735 4.4275 19.635 4.4275C18.5625 4.4275 17.6825 4.7575 17.6825 6.38C17.6825 8.0025 18.5625 8.8275 19.635 8.8275Z" fill="white"/>
</svg>
